<?xml version="1.0" ?><svg data-name="Layer 1" id="Layer_1" viewBox="0 0 64 64" xmlns="http://www.w3.org/2000/svg"><title/><path d="M28,12H14.6c-2.54,0-4.6,1.776-4.6,3.966V28" style="fill:none;stroke:#000;stroke-linecap:round;stroke-miterlimit:10;stroke-width:2px"/><path d="M28,52H14.6c-2.54,0-4.6-1.776-4.6-3.966V36" style="fill:none;stroke:#000;stroke-linecap:round;stroke-miterlimit:10;stroke-width:2px"/><path d="M36,12H49.4c2.54,0,4.6,1.776,4.6,3.966V28" style="fill:none;stroke:#000;stroke-linecap:round;stroke-miterlimit:10;stroke-width:2px"/><path d="M36,52H49.4c2.54,0,4.6-1.776,4.6-3.966V36" style="fill:none;stroke:#000;stroke-linecap:round;stroke-miterlimit:10;stroke-width:2px"/><line style="fill:none;stroke:#000;stroke-linecap:square;stroke-miterlimit:10;stroke-width:2px" x1="14" x2="49" y1="32" y2="32"/><line style="fill:none;stroke:#000;stroke-linecap:square;stroke-miterlimit:10;stroke-width:2px" x1="17" x2="17" y1="30" y2="23"/><line style="fill:none;stroke:#000;stroke-linecap:square;stroke-miterlimit:10;stroke-width:2px" x1="15" x2="15" y1="30" y2="23"/><line style="fill:none;stroke:#000;stroke-linecap:square;stroke-miterlimit:10;stroke-width:2px" x1="22" x2="22" y1="23" y2="30"/><line style="fill:none;stroke:#000;stroke-linecap:square;stroke-miterlimit:10;stroke-width:2px" x1="24" x2="24" y1="23" y2="30"/><line style="fill:none;stroke:#000;stroke-linecap:square;stroke-miterlimit:10;stroke-width:2px" x1="27" x2="27" y1="23" y2="30"/><line style="fill:none;stroke:#000;stroke-linecap:square;stroke-miterlimit:10;stroke-width:2px" x1="32" x2="32" y1="23" y2="30"/><line style="fill:none;stroke:#000;stroke-linecap:square;stroke-miterlimit:10;stroke-width:2px" x1="33" x2="33" y1="23" y2="30"/><line style="fill:none;stroke:#000;stroke-linecap:square;stroke-miterlimit:10;stroke-width:2px" x1="35" x2="35" y1="23" y2="30"/><line style="fill:none;stroke:#000;stroke-linecap:square;stroke-miterlimit:10;stroke-width:2px" x1="39" x2="39" y1="23" y2="30"/><line style="fill:none;stroke:#000;stroke-linecap:square;stroke-miterlimit:10;stroke-width:2px" x1="41" x2="41" y1="23" y2="30"/><line style="fill:none;stroke:#000;stroke-linecap:square;stroke-miterlimit:10;stroke-width:2px" x1="43" x2="43" y1="23" y2="30"/><line style="fill:none;stroke:#000;stroke-linecap:square;stroke-miterlimit:10;stroke-width:2px" x1="48" x2="48" y1="23" y2="30"/><line style="fill:none;stroke:#000;stroke-linecap:square;stroke-miterlimit:10;stroke-width:2px" x1="17" x2="17" y1="35" y2="41"/><line style="fill:none;stroke:#000;stroke-linecap:square;stroke-miterlimit:10;stroke-width:2px" x1="15" x2="15" y1="35" y2="41"/><line style="fill:none;stroke:#000;stroke-linecap:square;stroke-miterlimit:10;stroke-width:2px" x1="22" x2="22" y1="41" y2="35"/><line style="fill:none;stroke:#000;stroke-linecap:square;stroke-miterlimit:10;stroke-width:2px" x1="24" x2="24" y1="41" y2="35"/><line style="fill:none;stroke:#000;stroke-linecap:square;stroke-miterlimit:10;stroke-width:2px" x1="27" x2="27" y1="41" y2="35"/><line style="fill:none;stroke:#000;stroke-linecap:square;stroke-miterlimit:10;stroke-width:2px" x1="32" x2="32" y1="41" y2="35"/><line style="fill:none;stroke:#000;stroke-linecap:square;stroke-miterlimit:10;stroke-width:2px" x1="33" x2="33" y1="41" y2="35"/><line style="fill:none;stroke:#000;stroke-linecap:square;stroke-miterlimit:10;stroke-width:2px" x1="35" x2="35" y1="41" y2="35"/><line style="fill:none;stroke:#000;stroke-linecap:square;stroke-miterlimit:10;stroke-width:2px" x1="39" x2="39" y1="41" y2="35"/><line style="fill:none;stroke:#000;stroke-linecap:square;stroke-miterlimit:10;stroke-width:2px" x1="41" x2="41" y1="41" y2="35"/><line style="fill:none;stroke:#000;stroke-linecap:square;stroke-miterlimit:10;stroke-width:2px" x1="43" x2="43" y1="41" y2="35"/><line style="fill:none;stroke:#000;stroke-linecap:square;stroke-miterlimit:10;stroke-width:2px" x1="48" x2="48" y1="41" y2="35"/></svg>